<svg width="18" height="18" viewBox="0 0 18 18" fill="none" xmlns="http://www.w3.org/2000/svg">
<path d="M10.3086 16.3867L9.44141 17.2539C9.07422 17.6211 8.48047 17.6211 8.11719 17.2539L0.523438 9.66406C0.15625 9.29688 0.15625 8.70313 0.523438 8.33984L8.11719 0.746094C8.48438 0.378906 9.07812 0.378906 9.44141 0.746094L10.3086 1.61328C10.6797 1.98438 10.6719 2.58984 10.293 2.95312L5.58594 7.4375H16.8125C17.332 7.4375 17.75 7.85547 17.75 8.375V9.625C17.75 10.1445 17.332 10.5625 16.8125 10.5625H5.58594L10.293 15.0469C10.6758 15.4102 10.6836 16.0156 10.3086 16.3867Z" fill="black"/>
</svg>
