<svg width="18" height="18" viewBox="0 0 18 18" fill="none" xmlns="http://www.w3.org/2000/svg">
<path d="M7.69141 16.3867L8.55859 17.2539C8.92578 17.6211 9.51953 17.6211 9.88281 17.2539L17.4766 9.66406C17.8438 9.29688 17.8438 8.70313 17.4766 8.33984L9.88281 0.746094C9.51562 0.378906 8.92188 0.378906 8.55859 0.746094L7.69141 1.61328C7.32031 1.98438 7.32812 2.58984 7.70703 2.95312L12.4141 7.4375H1.1875C0.667969 7.4375 0.25 7.85547 0.25 8.375V9.625C0.25 10.1445 0.667969 10.5625 1.1875 10.5625H12.4141L7.70703 15.0469C7.32422 15.4102 7.31641 16.0156 7.69141 16.3867Z" fill="black"/>
</svg>
