<svg width="62" height="62" xmlns="http://www.w3.org/2000/svg" xml:space="preserve" enable-background="new 0 0 1000 1000" version="1.1" fill="#fff">
 <g>
  <title>hectagon</title>
  <path id="svg_25" d="m101.14145,585.67119l77.0208,-333.29579l311.83702,-148.33078l311.8371,148.33078l77.02221,333.29579l-215.80413,267.28425l-346.11034,0l-215.80266,-267.28425z" stroke="#000" fill="#fff"/>
  <path stroke="#000" id="svg_26" d="m281.14672,536.06093l41.36735,-179.01091l167.48555,-79.66746l167.48559,79.66746l41.36811,179.01091l-115.90694,143.55655l-185.89352,0l-115.90615,-143.55655z" fill="#fff"/>
  <path stroke="#000" id="svg_27" d="m225.58948,551.37272l52.3715,-226.62972l212.03849,-100.85985l212.03854,100.85985l52.37246,226.62972l-146.73941,181.74412l-235.34318,0l-146.73841,-181.74412z" fill="#fff"/>
  <path stroke="#000" id="svg_28" d="m3.50605,38.57746l5.4457,-23.56545l22.0482,-10.48763l22.04821,10.48763l5.4458,23.56545l-15.25827,18.89815l-24.47147,0l-15.25816,-18.89815z" fill="#fff"/>
  <path stroke="#000" id="svg_31" d="m14.87446,35.44428l3.19397,-13.82142l12.93154,-6.15112l12.93154,6.15112l3.19403,13.82142l-8.94916,11.084l-14.35282,0l-8.9491,-11.084z" fill="#fff"/>
  <path stroke="#000" id="svg_32" d="m10.97973,36.51769l3.9654,-17.15966l16.05484,-7.63677l16.05484,7.63677l3.96547,17.15966l-11.11061,13.76106l-17.8194,0l-11.11054,-13.76106z" fill="#fff"/>
 </g>

</svg>